<svg width="125" height="29" viewBox="0 0 125 29" fill="none" xmlns="http://www.w3.org/2000/svg">
<path d="M10.2891 0.992188C11.487 0.992188 12.5026 1.41536 13.3359 2.26172C14.1823 3.10807 14.6055 4.13021 14.6055 5.32812V29H11.7148V5.07422C11.7148 4.67057 11.5781 4.33203 11.3047 4.05859C11.0312 3.78516 10.6927 3.64844 10.2891 3.64844C9.88542 3.64844 9.54036 3.78516 9.25391 4.05859C8.98047 4.33203 8.84375 4.67057 8.84375 5.07422V29H5.95312V5.07422C5.95312 4.67057 5.81641 4.33203 5.54297 4.05859C5.26953 3.78516 4.93099 3.64844 4.52734 3.64844C4.1237 3.64844 3.77865 3.78516 3.49219 4.05859C3.21875 4.33203 3.08203 4.67057 3.08203 5.07422V29H0.191406V5.32812C0.191406 4.13021 0.614583 3.10807 1.46094 2.26172C2.30729 1.41536 3.32943 0.992188 4.52734 0.992188C5.59505 0.992188 6.55208 1.36979 7.39844 2.125C8.24479 1.36979 9.20833 0.992188 10.2891 0.992188ZM28.9883 29V0.992188H31.8789V29H28.9883ZM56.3594 0.992188C57.5573 0.992188 58.5729 1.41536 59.4062 2.26172C60.2526 3.10807 60.6758 4.13021 60.6758 5.32812V29H57.7852V5.07422C57.7852 4.67057 57.6484 4.33203 57.375 4.05859C57.1016 3.78516 56.763 3.64844 56.3594 3.64844C55.9557 3.64844 55.6107 3.78516 55.3242 4.05859C55.0508 4.33203 54.9141 4.67057 54.9141 5.07422V29H52.0234V5.07422C52.0234 4.67057 51.8867 4.33203 51.6133 4.05859C51.3398 3.78516 51.0013 3.64844 50.5977 3.64844C50.194 3.64844 49.849 3.78516 49.5625 4.05859C49.2891 4.33203 49.1523 4.67057 49.1523 5.07422V29H46.2617V5.32812C46.2617 4.13021 46.6849 3.10807 47.5312 2.26172C48.3776 1.41536 49.3997 0.992188 50.5977 0.992188C51.6654 0.992188 52.6224 1.36979 53.4688 2.125C54.3151 1.36979 55.2786 0.992188 56.3594 0.992188ZM75.0586 29V0.992188H77.9492V29H75.0586ZM98.0938 13.6875V0.992188H100.984V29H98.0938V16.3242H95.2227V29H92.332V0.992188H95.2227V13.6875H98.0938ZM116.656 2.26172C117.503 1.41536 118.525 0.992188 119.723 0.992188C120.921 0.992188 121.936 1.41536 122.77 2.26172C123.616 3.10807 124.039 4.13021 124.039 5.32812V24.6836C124.039 25.8815 123.616 26.9036 122.77 27.75C121.936 28.5833 120.921 29 119.723 29C118.525 29 117.503 28.5833 116.656 27.75C115.81 26.9036 115.387 25.8815 115.387 24.6836V5.32812C115.387 4.13021 115.81 3.10807 116.656 2.26172ZM121.148 24.918V5.07422C121.148 4.67057 121.012 4.33203 120.738 4.05859C120.465 3.78516 120.126 3.64844 119.723 3.64844C119.319 3.64844 118.974 3.78516 118.688 4.05859C118.414 4.33203 118.277 4.67057 118.277 5.07422V24.918C118.277 25.3216 118.414 25.6667 118.688 25.9531C118.974 26.2266 119.319 26.3633 119.723 26.3633C120.126 26.3633 120.465 26.2266 120.738 25.9531C121.012 25.6667 121.148 25.3216 121.148 24.918Z" fill="#494848"/>
</svg>
